<?xml version="1.0" encoding="utf-8"?>
<!-- Generator: Adobe Illustrator 15.0.2, SVG Export Plug-In . SVG Version: 6.00 Build 0)  -->
<!DOCTYPE svg PUBLIC "-//W3C//DTD SVG 1.1//EN" "http://www.w3.org/Graphics/SVG/1.1/DTD/svg11.dtd">
<svg version="1.1" xmlns="http://www.w3.org/2000/svg" xmlns:xlink="http://www.w3.org/1999/xlink" x="0px" y="0px" width="320px"
	 height="320px" viewBox="0 0 320 320" enable-background="new 0 0 320 320" xml:space="preserve">
<g id="bg" display="none">
	<rect display="inline" width="320" height="320"/>
</g>
<g id="Layer_2">
	<rect x="206" y="191" fill="#00FF4E" width="60" height="60"/>
	<g>
		<defs>
			<rect id="SVGID_1_" x="8.408" y="19.939" width="44.796" height="19.407"/>
		</defs>
		<clipPath id="SVGID_2_">
			<use xlink:href="#SVGID_1_"  overflow="visible"/>
		</clipPath>
		<path clip-path="url(#SVGID_2_)" fill="#FFFFFF" d="M24.493,27.331c0,0-0.39-0.353-0.475-0.451
			c-0.085-0.097-0.024-0.243,0.073-0.304c0.098-0.061,0.304-0.244,0.329-0.415c0.024-0.17,0.062-0.292,0.024-0.39
			s-0.098-0.085-0.109-0.158c-0.013-0.073-0.062-0.122,0.023-0.243c0.086-0.121,0.171-0.207,0.232-0.231
			c0.061-0.024,0.158-0.061,0.366-0.048c0.206,0.011,0.475,0.097,0.669,0.341c0.195,0.242,0.243,0.425,0.292,0.572
			c0.048,0.146,0.048,0.146,0.072,0.219c0.024,0.072,0.024,0.134-0.036,0.194c-0.061,0.062-0.451,0.391-0.609,0.512
			s-0.511,0.377-0.584,0.427C24.688,27.404,24.578,27.391,24.493,27.331"/>
		<path clip-path="url(#SVGID_2_)" fill="#FFFFFF" d="M25.917,25.31c-0.014,0.231,0.024,0.584,0.39,0.828
			c0.354,0.237,0.633,0.28,0.828,0.305c0.195,0.024,0.535,0.135,0.914-0.121c0.376-0.256,0.535-0.354,0.706-0.597
			c0.17-0.243,0.401-0.706,0.218-1.132c-0.182-0.426-0.402-0.767-0.694-1.048c-0.292-0.279-0.438-0.339-0.486-0.607
			c-0.049-0.269-0.073-0.306-0.049-0.415l0.012-0.085c0.013-0.085-0.109-0.109-0.133,0.012c-0.025,0.122-0.086,0.304-0.048,0.511
			c0.036,0.207,0.096,0.572,0.182,0.827c0.086,0.256-0.075,0.691-0.452,0.828c-0.132,0.049-0.213,0.047-0.351,0
			c-0.146-0.048-0.244,0-0.402,0.134c-0.053,0.044-0.195,0.05-0.317,0.158C26.112,25.018,25.93,25.115,25.917,25.31"/>
		<path clip-path="url(#SVGID_2_)" fill="#FFFFFF" d="M26.027,24.117c0,0,0.353-0.037,0.426-0.025s0.159,0.062,0.159,0.062
			s0.097,0.121,0.011,0.182c-0.085,0.061-0.122,0.159-0.122,0.159s-0.085,0.146-0.255,0.194c-0.171,0.049-0.316,0.049-0.39,0.025
			c-0.073-0.025-0.134-0.073-0.158-0.122c-0.024-0.048-0.146-0.244-0.134-0.317c0.013-0.072-0.012-0.108,0.061-0.121
			c0.073-0.013,0.098,0.023,0.11,0.061c0.012,0.037,0.037,0.11,0.06,0.158c0.025,0.048,0.086,0.085,0.195,0.085
			s0.158-0.013,0.158-0.013l0.036-0.036h0.074l0.012-0.074c0,0,0-0.048-0.061-0.048s-0.146,0-0.17-0.037
			C26.015,24.214,25.99,24.128,26.027,24.117"/>
		<path clip-path="url(#SVGID_2_)" fill="#FFFFFF" d="M27.096,22.838c-0.011-0.065-0.017-0.102,0.063-0.182
			c0.085-0.085,0.45-0.377,0.475-0.439c0.025-0.061,0.012-0.146,0.012-0.146s0.025-0.377,0.061-0.439
			c0.037-0.06,0.049-0.085,0.049-0.085s-0.012-0.048-0.062-0.048c-0.048,0-0.122,0.11-0.122,0.11l-0.23,0.122
			c0,0-0.159-0.014-0.33,0.17c-0.17,0.183-0.292,0.378-0.414,0.5c-0.122,0.121-0.341,0.268-0.609,0.376
			c-0.059,0.025-0.119,0.042-0.18,0.062H27.096z"/>
		<path clip-path="url(#SVGID_2_)" fill="#FFFFFF" d="M25.811,22.838c-0.214,0.068-0.444,0.148-0.734,0.585
			c-0.121,0.183-0.28,0.39-0.28,0.39s-0.072,0.073,0,0.097c0.073,0.025,0.316,0.014,0.316,0.014s0.074-0.025,0.134-0.136
			c0.061-0.108,0.105-0.265,0.377-0.401c0.073-0.037,0.183-0.097,0.231-0.085c0.049,0.011,0.049,0.048,0,0.073
			c-0.049,0.023-0.134,0.146-0.134,0.146s-0.146,0.146-0.171,0.195c-0.024,0.049-0.024,0.123-0.024,0.123s-0.012,0.085,0.036,0.085
			h0.146c0,0,0.33-0.11,0.597-0.062c0.268,0.048,0.415,0.062,0.415,0.062s0.084,0.06,0.17,0.108
			c0.085,0.049,0.146,0.146,0.183,0.146c0.037,0,0.23-0.012,0.23-0.012s0.049-0.024,0.049-0.098s-0.011-0.451,0.012-0.548
			c0.025-0.097,0.048-0.061,0.048-0.208c0-0.146,0-0.23-0.133-0.292c-0.135-0.061-0.169-0.097-0.183-0.17
			c0-0.004-0.001-0.008-0.001-0.012H25.811z"/>
		<path clip-path="url(#SVGID_2_)" fill="#FFFFFF" d="M24.834,24.117c0,0,0.219,0.06,0.316,0.06s0.183,0.037,0.183,0.037
			s0.183,0.025,0.062,0.195c-0.058,0.079-0.195,0.085-0.195,0.085c-0.037,0.061-0.049,0.097,0,0.134s0.17,0.085,0.207,0.122
			c0.037,0.036,0.098,0.146,0.098,0.146c-0.024,0.085-0.085,0.097-0.146,0.073c-0.061-0.024-0.268-0.122-0.415-0.133
			c-0.146-0.013-0.523,0.023-0.658,0.328c-0.133,0.305-0.146,0.341-0.231,0.377s-0.158,0.025-0.195-0.072s0.037-0.146,0.109-0.22
			c0.073-0.072,0.231-0.45,0.305-0.548c0.073-0.097,0.146-0.194,0.183-0.256c0.037-0.061,0.044-0.16,0.159-0.256
			C24.688,24.128,24.737,24.104,24.834,24.117"/>
		<path clip-path="url(#SVGID_2_)" fill="#FFFFFF" d="M23.774,25.699c0.155-0.039,0.268-0.037,0.378,0.012
			c0.109,0.049,0.135,0.073,0.135,0.207c0,0.134,0.023,0.134-0.062,0.244c-0.085,0.109-0.159,0.109-0.231,0.146
			c-0.074,0.037-0.134,0.061-0.134,0.134l-0.024,0.098c-0.109-0.062-0.182-0.062-0.243-0.086c-0.061-0.024-0.134-0.073-0.171-0.122
			c-0.036-0.048-0.109-0.11-0.049-0.232c0.061-0.122,0.11-0.255,0.195-0.316C23.653,25.724,23.726,25.711,23.774,25.699"/>
		<path clip-path="url(#SVGID_2_)" fill="#FFFFFF" d="M25.442,27.271v0.475c-0.012,0.085-0.012,0.134-0.061,0.108
			c-0.049-0.023-0.037-0.085-0.085-0.097s-0.11,0-0.146-0.049c-0.037-0.048-0.11-0.085-0.11-0.195c0-0.108,0.134-0.242,0.183-0.267
			s0.146-0.061,0.146-0.061S25.43,27.185,25.442,27.271"/>
		<path clip-path="url(#SVGID_2_)" fill="#FFFFFF" d="M25.662,26.868c0.067-0.08,0.39-0.279,0.646-0.305
			c0.256-0.024,0.742,0.012,1.034,0.256s0.462,0.536,0.475,0.877c0.013,0.341-0.109,0.803-0.499,1.07
			c-0.389,0.268-0.718,0.415-1.095,0.366c-0.378-0.048-0.487-0.122-0.609-0.195c-0.122-0.073-0.158-0.146-0.17-0.256
			c-0.013-0.108,0.012-0.182,0.024-0.231c0.012-0.049,0.049-0.073,0.11-0.037c0.061,0.037,0.085,0.109,0.158,0.183
			c0.073,0.074,0.255,0.22,0.414,0.244c0.159,0.024,0.5,0.074,0.743-0.073c0.243-0.145,0.462-0.401,0.499-0.706
			c0.036-0.304,0-0.779-0.245-0.961c-0.243-0.183-0.498-0.216-0.692-0.231c-0.159-0.012-0.22-0.037-0.341,0
			c-0.122,0.037-0.226,0.091-0.305,0.146c-0.122,0.085-0.159,0.061-0.183-0.013C25.601,26.93,25.601,26.941,25.662,26.868"/>
		<path clip-path="url(#SVGID_2_)" fill="#FFFFFF" d="M28.108,26.539c0,0,0.268-0.194,0.402-0.28
			c0.134-0.085,0.304-0.207,0.377-0.244c0.073-0.037,0.109-0.073,0.109-0.073s0.146-0.037,0.195,0.014
			c0.049,0.048,0.074,0.085,0.085,0.194c0.012,0.109,0.085,0.78,0.073,0.937c-0.012,0.159-0.098,0.598-0.183,0.755
			c-0.085,0.157-0.377,0.535-0.754,0.73c-0.378,0.194-0.658,0.461-0.889,0.852c-0.231,0.39-0.486,0.505-0.816,0.535
			c-0.133,0.013-0.158,0.062-0.243,0.049c-0.086-0.013-0.329-0.098-0.561-0.134c-0.23-0.037-0.413-0.048-0.535-0.171
			c-0.122-0.122-0.146-0.194-0.122-0.279c0.024-0.085,0.024-0.183,0.037-0.28c0.012-0.097,0.085-0.085,0.158-0.061
			c0.073,0.024,0.109,0.097,0.195,0.146c0.085,0.049,0.414,0.159,0.815,0.134c0.402-0.023,0.682-0.134,1.023-0.426
			c0.34-0.293,0.462-0.56,0.511-1.07c0.049-0.512-0.036-0.622-0.061-0.816c-0.024-0.195-0.061-0.317,0.061-0.414L28.108,26.539z"/>
		<path clip-path="url(#SVGID_2_)" fill="#FFFFFF" d="M33.812,30.57c0.105,0.066,0.264,0.138,0.543,0.23
			c0.365,0.123,0.523,0.318,0.682,0.463c0.158,0.147,0.219,0.232,0.293,0.305c0.072,0.073,0.035,0.17-0.086,0.121
			c-0.122-0.048-0.365-0.206-0.865-0.267c-0.5-0.062-1.182-0.048-1.327-0.012c-0.146,0.036-0.206,0.122-0.255,0.22
			c-0.05,0.097-0.183,0.34-0.523,0.327c-0.342-0.012-0.634-0.062-0.829-0.159c-0.194-0.096-0.085-0.121-0.329-0.181
			c-0.243-0.062-0.986-0.257-1.473-0.257c-0.11,0-0.34-0.012-0.461-0.012c-0.171,0-0.245,0-0.28-0.073
			c-0.037-0.073-0.024-0.171-0.304-0.256c-0.281-0.085-0.646,0.013-0.84,0.11c-0.195,0.097-0.438,0.244-0.633,0.268
			c-0.195,0.024-0.305,0-0.5-0.049s-0.23-0.023-0.427-0.012c-0.193,0.012-0.449,0.219-0.498,0.256
			c-0.048,0.037-0.268,0.181-0.341,0.181c-0.073,0-0.098-0.047-0.085-0.12c0.013-0.074,0.159-0.146,0.195-0.207
			c0.037-0.061,0.116-0.134,0.207-0.279c0.098-0.159,0.25-0.383,0.335-0.578c0,0-0.021,0.037,0,0
			c0.058-0.108,0.232-0.349,0.614-0.386c0.511-0.048,0.511-0.06,0.706-0.109c0.195-0.05,0.414-0.232,0.5-0.476
			c0.06-0.172,0.151-0.309,0.303-0.438c0.063-0.053,0.136-0.106,0.221-0.159c0.292-0.183,0.645-0.316,0.9-0.645
			c0.256-0.329,0.475-0.791,0.402-1.448c-0.013-0.11-0.036-0.341-0.05-0.391c-0.011-0.049-0.023-0.134-0.023-0.134
			s0.023-0.219,0.123,0c0.096,0.219,0.145,0.476,0.194,0.597c0.049,0.123,0.122,0.536,0.414,1.047
			c0.292,0.511,0.706,0.754,1.351,0.865c0.471,0.079,0.705,0.202,0.863,0.316c0.06,0.042-0.068-0.055,0,0
			c0.256,0.208,0.684,0.573,0.779,0.694c0.098,0.122,0.171,0.305,0.293,0.451C33.66,30.445,33.71,30.505,33.812,30.57"/>
		<path clip-path="url(#SVGID_2_)" fill="#FFFFFF" d="M35.568,28.097c0.013-0.061,0.021-0.114,0.027-0.158
			c0.021-0.143-0.097-0.268-0.17-0.292c-0.092-0.03-0.244,0-0.341,0c-0.194,0-0.194,0.024-0.536-0.194
			c-0.34-0.22-0.582-0.463-0.826-0.731c-0.244-0.268-0.415-0.413-0.536-0.534c-0.122-0.123-0.657-0.341-1.048-0.61
			c-0.389-0.268-0.682-0.145-1.168-0.194c-0.486-0.048-0.706-0.195-0.779-0.268c-0.073-0.072-0.122-0.194-0.268-0.243
			c-0.146-0.049-0.268-0.073-0.463-0.098c-0.194-0.023-0.194,0.171-0.219,0.341c0,0-0.024,0.122-0.024,0.195
			c0,0.196,0.146,0.244,0.268,0.39c0.122,0.147,0.487,0.632,0.633,0.949c0.146,0.316,0.262,0.785,0.56,1.267
			c0.042,0.066,0.088,0.128,0.138,0.182c0.326,0.359,0.803,0.458,1.226,0.5c0.487,0.048,0.683,0.194,0.925,0.463
			c0.244,0.267,0.512,0.511,0.682,0.729c0.172,0.219,0.366,0.486,0.682,0.633c0.318,0.145,0.463,0.123,0.658,0.244
			c0.193,0.121,0.535,0.584,0.607,0.705c0.074,0.122,0.146,0.146,0.172,0.05c0.023-0.099-0.049-0.122-0.074-0.243
			c-0.027-0.145-0.049-0.537-0.146-0.804c-0.097-0.268-0.193-0.633-0.242-1.022c-0.049-0.391,0-0.414,0.098-0.658
			C35.474,28.513,35.533,28.276,35.568,28.097"/>
		<path clip-path="url(#SVGID_2_)" fill="#FFFFFF" d="M29.46,24.335c0,0-0.073-0.218,0.098-0.39c0.17-0.17,0.365-0.34,0.56-0.511
			c0.194-0.171,0.34-0.34,0.438-0.413c0.098-0.073,0.244-0.026,0.365,0.073c0.122,0.097,0.269,0.316,0.829,0.413
			c0.559,0.099,0.987-0.06,1.605,0.682c0.123,0.146,0.172,0.341,0.464,0.439c0.292,0.097,0.487,0.171,0.634,0.316
			c0.146,0.147,0.511,0.365,0.681,0.926c0.171,0.56-0.048,0.827,0,0.998c0.05,0.17,0.122,0.341,0.22,0.414
			c0.097,0.072,0.049,0.121-0.121,0.097c-0.171-0.024-0.561-0.195-0.854-0.487c-0.291-0.292-1.049-1.153-1.826-1.509
			c-0.9-0.414-1.46-0.317-1.705-0.317c-0.243,0-0.34-0.146-0.438-0.292c-0.135-0.203-0.341-0.194-0.56-0.218
			C29.63,24.53,29.509,24.481,29.46,24.335"/>
		<path clip-path="url(#SVGID_2_)" fill="#FFFFFF" d="M28.462,23.484c0,0-0.097-0.074,0-0.123c0.097-0.049,0.219,0.025,0.414,0
			c0.195-0.023,0.56,0.049,0.901-0.39c0.34-0.438,0.345-0.596,0.297-0.718c-0.047-0.122-0.131-0.233-0.346-0.28
			c-0.219-0.049-0.622-0.13-0.999,0.341c-0.097,0.122-0.097,0.073-0.122,0.292c-0.025,0.219-0.073,0.341-0.171,0.389
			c-0.097,0.05-0.341,0-0.414-0.17c-0.073-0.17-0.171-0.657-0.122-0.779s-0.024-0.315,0.146-0.389
			c0.171-0.073,0.365-0.147,0.511-0.147c0.146,0,0.123,0.048,0.317,0.121s0.365,0.049,0.535,0.026
			c0.171-0.026,0.561,0.023,0.731,0.145c0.17,0.122,0.389,0.39,0.292,0.658c-0.097,0.268-0.269,0.634-0.56,0.804
			c-0.292,0.17-0.653,0.544-0.73,0.853c-0.024,0.097-0.073,0.097-0.121-0.025c-0.049-0.121-0.171-0.268-0.293-0.39
			C28.608,23.581,28.462,23.484,28.462,23.484"/>
		<path clip-path="url(#SVGID_2_)" fill="#FFFFFF" d="M30.629,22.534c0.054-0.161,0.098-0.365,0-0.585
			c-0.097-0.218-0.243-0.389-0.365-0.414c-0.122-0.024-0.292-0.024-0.365-0.024c-0.073,0-0.146-0.122,0-0.17
			c0.146-0.049,0.365-0.073,0.511-0.049c0.146,0.024,0.584,0.098,0.876,0.414c0.293,0.317,0.731,0.463,1.047,0.415
			s1.07-0.171,1.68,0.682s0.463,0.95,0.512,1.145s0.025,0.268,0.171,0.439c0.146,0.17,0.121,0.267,0.146,0.364
			c0.025,0.098-0.024,0.098-0.121-0.024c-0.098-0.122-0.391-0.269-0.561-0.292c-0.171-0.024-0.487-0.243-0.609-0.487
			c-0.121-0.244-0.633-0.608-0.9-0.633c-0.268-0.023-1.168-0.122-1.387-0.341c-0.22-0.219-0.342-0.244-0.487-0.244
			C30.629,22.728,30.604,22.607,30.629,22.534"/>
		<path clip-path="url(#SVGID_2_)" fill="#FFFFFF" d="M28.803,21.316c0,0,0.146,0.098,0.536-0.048
			c0.389-0.146,0.657-0.316,1.071-0.244c0.414,0.073,0.705,0.048,0.925,0.244c0.219,0.195,0.219,0.268,0.389,0.341
			c0.172,0.073,0.386,0.205,0.9,0.17c0.367-0.024,0.586,0.073,0.756,0.146c0.17,0.072,0.487,0.268,0.537,0.341
			c0.049,0.072,0.022,0.049-0.025-0.122c-0.049-0.17-0.342-0.487-0.488-0.584c-0.145-0.097-0.072-0.146-0.17-0.244
			c-0.097-0.097-0.34-0.194-0.463-0.146c-0.121,0.049-0.193,0.023-0.242-0.146c-0.049-0.171-0.146-0.268-0.391-0.438
			c-0.242-0.171-0.919-0.437-1.461-0.318c-0.219,0.05-0.242-0.146-0.365-0.121c-0.122,0.023-0.633,0.194-0.779,0.292
			c-0.146,0.098-0.194,0.195-0.341,0.292c-0.146,0.099-0.243,0.147-0.341,0.171c-0.097,0.024-0.146,0.17-0.146,0.269
			C28.705,21.268,28.803,21.316,28.803,21.316"/>
		<path clip-path="url(#SVGID_2_)" fill="#FFFFFF" d="M28.34,21.292L28.34,21.292c0,0,0.098-0.025,0.122-0.171
			c0.024-0.146-0.024-0.34,0.073-0.414c0.098-0.073,0.195-0.025,0.269-0.098c0.073-0.073,0.194-0.219,0.34-0.316
			s0.415-0.194,0.561-0.244c0.145-0.048,0.195-0.145-0.049-0.097c-0.244,0.049-0.561,0-0.755,0.025l-0.195,0.024
			c0,0-0.17-0.024-0.292,0.024c-0.121,0.048-0.243,0.074-0.291,0.146c-0.099,0.149-0.292,0.537-0.269,0.732
			c0.024,0.194-0.097,0.17,0.024,0.291C27.999,21.316,28.242,21.316,28.34,21.292"/>
		<path clip-path="url(#SVGID_2_)" fill="#FFFFFF" d="M27.634,20.586c0.055-0.164,0.073-0.317,0.17-0.415
			c0.098-0.097,0.122-0.243-0.024-0.17s-0.414,0-0.536,0.146c-0.122,0.146-0.195,0.292-0.171,0.462
			c0.024,0.171-0.048,0.293-0.097,0.463c-0.048,0.17-0.097,0.364-0.048,0.463c0.048,0.097,0.121,0.048,0.195-0.025
			c0.073-0.073,0.195-0.073,0.317-0.146c0.121-0.073,0.17-0.122,0.17-0.268S27.609,20.659,27.634,20.586"/>
		<path clip-path="url(#SVGID_2_)" fill="#FFFFFF" d="M26.636,21.341c0.024-0.098-0.049-0.098,0.024-0.244s0.17-0.365,0.17-0.511
			c0-0.146-0.024-0.22,0.049-0.292c0.073-0.074-0.073-0.097-0.17,0c-0.098,0.097-0.512,0.195-0.561,0.414
			C26.1,20.926,26.051,21,26.1,21.219c0.033,0.143,0,0.292-0.073,0.365c-0.074,0.073-0.279,0.125-0.097,0.486
			c0.048,0.098,0.097,0.122,0.195,0.17c0.097,0.049,0.219,0.025,0.365-0.122c0.146-0.146,0.22-0.219,0.22-0.219
			s-0.073-0.219-0.098-0.316C26.586,21.486,26.636,21.341,26.636,21.341"/>
		<path clip-path="url(#SVGID_2_)" fill="#FFFFFF" d="M12.039,34.354c0.202,0,0.25-0.136,0.337-0.136
			c0.032,0,0.037,0.021,0.093,0.207c0.18,0.62,0.239,0.724,0.239,0.739c0,0.017-0.048,0.044-0.082,0.044
			c-0.038,0-0.054-0.005-0.076-0.039c-0.261-0.473-0.523-0.651-0.92-0.651h-0.665c-0.092,0-0.13,0.059-0.13,0.342v2.102
			c0,0.234,0.005,0.589,0.016,0.861c0.006,0.146,0.038,0.239,0.468,0.239c0.152,0,0.152,0.032,0.152,0.092
			c0,0.048,0,0.071-0.044,0.071c-0.038,0-0.06-0.012-0.866-0.012c-0.8,0-0.821,0.012-0.859,0.012c-0.044,0-0.044-0.023-0.044-0.071
			c0-0.06,0-0.092,0.152-0.092c0.431,0,0.462-0.093,0.468-0.239c0.011-0.272,0.017-0.627,0.017-0.861V34.86
			c0-0.342-0.055-0.342-0.239-0.342H9.464c-0.403,0-0.675,0.332-0.888,0.651c-0.021,0.034-0.043,0.034-0.092,0.034
			c-0.05,0-0.077-0.022-0.077-0.039c0-0.016,0.027-0.037,0.261-0.729c0.022-0.059,0.034-0.218,0.082-0.218
			c0.115,0,0.137,0.136,0.359,0.136H12.039z"/>
		<path clip-path="url(#SVGID_2_)" fill="#FFFFFF" d="M12.654,36.995v0.402c0,0.152,0.003,0.383,0.01,0.561
			c0.004,0.096,0.025,0.156,0.306,0.156c0.1,0,0.1,0.021,0.1,0.061c0,0.033,0,0.047-0.029,0.047c-0.025,0-0.04-0.008-0.565-0.008
			c-0.523,0-0.537,0.008-0.562,0.008c-0.028,0-0.028-0.014-0.028-0.047c0-0.039,0-0.061,0.1-0.061c0.281,0,0.302-0.061,0.307-0.156
			c0.007-0.178,0.01-0.408,0.01-0.561v-0.871c0-0.253-0.003-0.338-0.007-0.502c-0.003-0.211-0.063-0.238-0.373-0.238
			c-0.04,0-0.04-0.028-0.04-0.061c0-0.021,0.008-0.046,0.031-0.046c0.029,0,0.338,0.014,0.562,0.014
			c0.228,0,0.537-0.014,0.565-0.014c0.025,0,0.031,0.024,0.031,0.046c0,0.032,0,0.061-0.038,0.061c-0.31,0-0.37,0.027-0.373,0.238
			c-0.004,0.164-0.007,0.249-0.007,0.502v0.362h1.411v-0.362c0-0.253-0.004-0.338-0.007-0.502c-0.004-0.211-0.064-0.238-0.373-0.238
			c-0.039,0-0.039-0.028-0.039-0.061c0-0.021,0.006-0.046,0.031-0.046c0.028,0,0.337,0.014,0.565,0.014
			c0.223,0,0.533-0.014,0.562-0.014c0.025,0,0.032,0.024,0.032,0.046c0,0.032,0,0.061-0.039,0.061c-0.311,0-0.37,0.027-0.374,0.238
			c-0.003,0.164-0.007,0.249-0.007,0.502v0.871c0,0.152,0.004,0.383,0.011,0.561c0.003,0.096,0.024,0.156,0.306,0.156
			c0.099,0,0.099,0.021,0.099,0.061c0,0.033,0,0.047-0.028,0.047c-0.024,0-0.039-0.008-0.562-0.008
			c-0.527,0-0.541,0.008-0.565,0.008c-0.027,0-0.027-0.014-0.027-0.047c0-0.039,0-0.061,0.098-0.061
			c0.282,0,0.303-0.061,0.306-0.156c0.007-0.178,0.011-0.408,0.011-0.561v-0.402H12.654z"/>
		<path clip-path="url(#SVGID_2_)" fill="#FFFFFF" d="M15.594,38.214c-0.523,0-0.537,0.008-0.561,0.008
			c-0.029,0-0.029-0.015-0.029-0.047c0-0.039,0-0.061,0.074-0.061c0.281,0,0.303-0.061,0.305-0.156
			c0.007-0.178,0.011-0.408,0.011-0.562v-0.869c0-0.252-0.004-0.338-0.007-0.502c-0.004-0.211-0.063-0.238-0.347-0.238
			c-0.04,0-0.04-0.028-0.04-0.061c0-0.021,0.007-0.046,0.033-0.045c0.028,0,0.337,0.013,0.561,0.013
			c0.417,0,0.935-0.013,1.194-0.014c0.082,0,0.128,0,0.136,0.028c0.092,0.327,0.156,0.48,0.156,0.502
			c0,0.021-0.022,0.024-0.053,0.024c-0.057,0-0.085-0.104-0.399-0.366c-0.052-0.047-0.138-0.082-0.245-0.082
			c-0.092,0-0.398,0.014-0.533,0.021c-0.081,0.004-0.103,0.074-0.103,0.273v0.817h0.238c0.385,0,0.413-0.155,0.42-0.194
			c0.042-0.264,0.053-0.264,0.078-0.264c0.042,0,0.067,0.004,0.067,0.024v0.534c0,0.213,0.018,0.334,0.018,0.424
			c0,0.022-0.025,0.026-0.046,0.026c-0.043,0-0.05-0.013-0.053-0.038c-0.054-0.385-0.118-0.406-0.462-0.406h-0.26v0.918
			c0,0.139,0.043,0.186,0.174,0.186h0.847c0.134,0,0.341-0.342,0.415-0.438c0.015-0.016,0.026-0.022,0.046-0.022
			c0.036,0,0.058,0.003,0.058,0.025c0,0.011-0.186,0.54-0.224,0.54H15.594z"/>
		<path clip-path="url(#SVGID_2_)" fill="#FFFFFF" d="M19.172,35.628c0-0.387-0.005-0.516-0.012-0.768
			c-0.004-0.32-0.097-0.364-0.571-0.364c-0.06,0-0.06-0.044-0.06-0.093c0-0.031,0.011-0.069,0.049-0.069
			c0.043,0,0.517,0.021,0.86,0.021c0.348,0,0.696-0.021,0.74-0.021c0.038,0,0.05,0.038,0.05,0.069c0,0.049,0,0.093-0.061,0.093
			c-0.349,0-0.441,0.044-0.446,0.364c-0.006,0.252-0.011,0.381-0.011,0.768v1.933c0,0.79-0.315,1.36-0.985,1.672
			c-0.192,0.087-0.305,0.113-0.43,0.113c-0.289,0-0.409-0.18-0.409-0.364c0-0.146,0.104-0.316,0.321-0.316
			c0.267,0,0.424,0.312,0.609,0.312c0.174,0,0.354-0.109,0.354-0.91V35.628z"/>
		<path clip-path="url(#SVGID_2_)" fill="#FFFFFF" d="M21.132,35.628c0-0.385-0.005-0.516-0.011-0.768
			c-0.006-0.32-0.098-0.364-0.489-0.364c-0.061,0-0.061-0.044-0.061-0.093c0-0.031,0.01-0.069,0.049-0.069
			c0.043,0,0.436,0.021,0.778,0.021c0.152,0,0.456-0.021,0.719-0.021c0.61,0,1.322,0.141,1.322,0.903c0,0.342-0.233,0.625-0.5,0.75
			c-0.305,0.143-0.441,0.143-0.441,0.18c0,0.023,0.031,0.023,0.103,0.039c0.578,0.119,0.991,0.436,0.991,1.018
			c0,0.457-0.332,1.002-1.187,1.002c-0.136,0-0.354-0.012-0.925-0.012c-0.8,0-0.822,0.012-0.86,0.012
			c-0.044,0-0.044-0.023-0.044-0.071c0-0.06,0-0.092,0.152-0.092c0.349,0,0.382-0.093,0.387-0.239
			c0.012-0.272,0.017-0.627,0.017-0.86V35.628z M22.095,36.102c0.496,0,0.757-0.31,0.757-0.788c0-0.158-0.032-0.817-0.817-0.817
			c-0.342,0-0.364-0.006-0.364,0.446v1.159H22.095z M21.671,37.751c0,0.224,0.021,0.312,0.349,0.312
			c0.576,0,0.984-0.278,0.984-0.871c0-0.638-0.431-0.926-0.958-0.926h-0.375V37.751z"/>
		<path clip-path="url(#SVGID_2_)" fill="#FFFFFF" d="M27.043,36.929c0-0.119-0.072-0.163-0.501-0.163
			c-0.333,0-0.333-0.032-0.333-0.093c0-0.048,0-0.07,0.099-0.07c0.038,0,0.185,0.012,0.99,0.012c0.763,0,0.784-0.012,0.823-0.012
			c0.042,0,0.042,0.022,0.042,0.07c0,0.061,0,0.093-0.115,0.093c-0.429,0-0.468,0.092-0.468,0.245v0.746
			c0,0.152,0.152,0.174,0.152,0.24c0,0.042-0.005,0.059-0.092,0.086c-0.38,0.138-1.034,0.207-1.736,0.207
			c-1.464,0-2.013-1.164-2.013-1.895c0-1.312,0.974-2.112,2.013-2.112c0.692,0,1.133,0.095,1.503,0.354
			c0.016,0.012,0.065,0.039,0.092,0.039c0.038,0,0.125-0.104,0.168-0.104c0.038,0,0.038,0.016,0.038,0.239
			c0,0.588,0.027,0.646,0.027,0.735c0,0.037-0.059,0.055-0.114,0.055c-0.022,0-0.092-0.158-0.163-0.394
			c-0.142-0.435-0.615-0.783-1.41-0.783c-0.676,0-1.508,0.642-1.508,1.948c0,1.203,0.86,1.775,1.605,1.775
			c0.544,0,0.899-0.061,0.899-0.393V36.929z"/>
		<path clip-path="url(#SVGID_2_)" fill="#FFFFFF" d="M33.113,37.202c0.033,0,0.061,0.004,0.061,0.064
			c0,0.066-0.076,0.605-0.076,0.719c0,0.049-0.023,0.082-0.078,0.098c-0.277,0.088-0.723,0.208-1.496,0.208
			c-1.464,0-2.014-1.165-2.014-1.896c0-1.312,0.974-2.111,2.014-2.111c0.926,0,1.084,0.207,1.23,0.207
			c0.098,0,0.137-0.092,0.213-0.092c0.01,0,0.037,0.011,0.037,0.064c0,0.332,0.104,0.827,0.104,0.871c0,0.048-0.066,0.07-0.104,0.07
			c-0.016,0-0.043,0-0.059-0.044c-0.234-0.599-0.578-0.937-1.281-0.937c-0.674,0-1.506,0.642-1.506,1.949
			c0,1.203,0.859,1.774,1.606,1.774c0.414,0,0.952-0.228,1.262-0.903C33.037,37.218,33.059,37.202,33.113,37.202"/>
		<path clip-path="url(#SVGID_2_)" fill="#FFFFFF" d="M34.759,38.265c-0.955,0-1.314-0.762-1.314-1.237
			c0-0.856,0.637-1.38,1.314-1.38c0.756,0,1.32,0.452,1.32,1.361C36.08,37.503,35.72,38.265,34.759,38.265 M34.759,35.74
			c-0.827,0-0.893,0.927-0.893,1.22c0,0.49,0.238,1.212,0.893,1.212c0.84,0,0.896-0.793,0.896-1.216
			C35.656,36.448,35.417,35.74,34.759,35.74"/>
		<path clip-path="url(#SVGID_2_)" fill="#FFFFFF" d="M38.613,35.718c0.012-0.027,0.021-0.039,0.043-0.037
			c0.018,0,0.277,0.013,0.359,0.013c0.061,0,0.363-0.013,0.389-0.015c0.035,0,0.037,0.029,0.037,0.062s-0.014,0.046-0.041,0.046
			c-0.32,0-0.36,0.025-0.36,0.188c0,0.232,0.04,0.98,0.075,1.974c0.004,0.12,0.104,0.167,0.195,0.167
			c0.199,0,0.203,0.021,0.203,0.047c0,0.053-0.018,0.061-0.039,0.061c-0.033,0-0.07-0.008-0.565-0.008
			c-0.462,0-0.483,0.008-0.513,0.008c-0.038,0-0.038-0.025-0.038-0.058c0-0.023,0.007-0.05,0.17-0.05
			c0.235,0,0.238-0.056,0.238-0.199c0-0.213-0.053-1.361-0.082-2.026h-0.007c-0.26,0.665-0.587,1.429-0.821,2.001
			c-0.134,0.329-0.134,0.367-0.181,0.367s-0.053-0.031-0.129-0.277c-0.078-0.256-0.657-1.826-0.671-1.826
			c-0.061,0.259-0.295,1.439-0.295,1.794c0,0.111,0.06,0.167,0.178,0.167c0.088,0,0.192,0.007,0.192,0.029
			c0,0.067,0,0.078-0.039,0.078c-0.029,0-0.065-0.008-0.43-0.008c-0.324,0-0.35,0.008-0.371,0.008c-0.028,0-0.039-0.003-0.039-0.061
			c0-0.037,0.018-0.047,0.188-0.047c0.125,0,0.15-0.047,0.189-0.248c0.096-0.512,0.182-1.027,0.291-1.539
			c0.035-0.161,0.047-0.26,0.047-0.334c0-0.021-0.05-0.154-0.093-0.18c-0.028-0.018-0.196-0.027-0.306-0.027
			c-0.043,0-0.043-0.028-0.043-0.053c0-0.029,0.008-0.055,0.039-0.053c0.068,0,0.374,0.013,0.412,0.013
			c0.093,0,0.242-0.013,0.289-0.015c0.04,0,0.049,0.039,0.084,0.167c0.076,0.269,0.592,1.708,0.656,1.839
			C38.09,37.055,38.362,36.405,38.613,35.718"/>
		<path clip-path="url(#SVGID_2_)" fill="#FFFFFF" d="M40.045,36.526c0-0.253-0.003-0.338-0.007-0.502
			c-0.003-0.211-0.062-0.238-0.319-0.238c-0.038,0-0.038-0.028-0.038-0.061c0-0.021,0.006-0.046,0.031-0.046
			c0.027,0,0.283,0.014,0.508,0.014c0.033,0,0.32-0.014,0.504-0.014c0.852,0,0.939,0.558,0.939,0.704
			c0,0.509-0.352,0.768-0.836,0.768c-0.142,0-0.283-0.007-0.43-0.035c0,0.564,0.004,0.664,0.007,0.77
			c0.007,0.144,0.028,0.229,0.396,0.229c0.1,0,0.1,0.021,0.1,0.061c0,0.033,0,0.047-0.029,0.047c-0.025,0-0.123-0.008-0.65-0.008
			c-0.523,0-0.537,0.008-0.562,0.008c-0.027,0-0.027-0.014-0.027-0.047c0-0.039,0-0.061,0.1-0.061c0.281,0,0.303-0.061,0.306-0.156
			c0.007-0.178,0.01-0.408,0.01-0.561V36.526z M40.398,36.909c0,0.083,0.021,0.135,0.203,0.135c0.388,0,0.679-0.225,0.679-0.632
			c0-0.366-0.233-0.626-0.583-0.626c-0.271,0-0.302,0-0.299,0.296V36.909z"/>
		<path clip-path="url(#SVGID_2_)" fill="#FFFFFF" d="M42.14,37.296c-0.104,0-0.117,0-0.146,0.075
			c-0.149,0.392-0.196,0.555-0.196,0.616c0,0.046,0,0.127,0.186,0.127c0.213,0,0.229,0.016,0.229,0.05
			c0,0.044-0.008,0.058-0.043,0.058c-0.029,0-0.076-0.008-0.499-0.008c-0.216,0-0.251,0.008-0.28,0.008
			c-0.018,0-0.025-0.018-0.025-0.061c0-0.029,0.035-0.047,0.133-0.047c0.066,0,0.135-0.041,0.181-0.182
			c0.217-0.629,0.491-1.396,0.835-2.256c0.012-0.033,0.025-0.033,0.068-0.033c0.031,0,0.042,0,0.061,0.043
			c0.023,0.062,0.617,1.688,0.866,2.258c0.059,0.131,0.132,0.17,0.271,0.17c0.031,0,0.107,0.012,0.107,0.04
			c0,0.024-0.008,0.067-0.039,0.067c-0.037,0-0.064-0.008-0.495-0.008c-0.479,0-0.504,0.008-0.529,0.008
			c-0.015,0-0.017-0.029-0.017-0.064c0-0.036,0.078-0.043,0.148-0.043c0.143,0,0.188-0.018,0.188-0.078
			c0-0.084-0.213-0.59-0.27-0.74H42.14z M42.827,37.179l-0.378-1.041h-0.006c-0.025,0-0.363,0.953-0.363,1.004
			c0,0.037,0.021,0.037,0.135,0.037H42.827z"/>
		<path clip-path="url(#SVGID_2_)" fill="#FFFFFF" d="M43.829,35.786c-0.032,0-0.032-0.021-0.032-0.057
			c0-0.043,0.012-0.05,0.039-0.05c0.021,0,0.274,0.014,0.338,0.014c0.053,0,0.26-0.014,0.316-0.014c0.011,0,0.018,0.011,0.027,0.021
			c0.417,0.47,0.979,1.142,1.774,1.959c0.019-0.331,0.036-0.961,0.036-1.309c0-0.544-0.135-0.565-0.445-0.565
			c-0.038,0-0.045-0.021-0.045-0.051c0-0.034,0.011-0.056,0.039-0.056c0.057,0,0.415,0.014,0.516,0.014
			c0.078,0,0.444-0.014,0.466-0.014c0.021,0,0.028,0.024,0.028,0.046c0,0.049-0.014,0.061-0.032,0.061
			c-0.288,0-0.349,0.035-0.395,0.296c-0.021,0.124-0.063,1.794-0.063,2.132c0,0.047-0.018,0.049-0.054,0.049
			c-0.032,0-0.331-0.377-1.973-2.143c-0.004,0.306-0.011,0.611-0.011,0.918c0,0.526,0.014,0.828,0.014,0.903
			c0,0.116,0.082,0.173,0.277,0.173c0.182,0,0.182,0.018,0.182,0.054c0,0.043-0.008,0.054-0.035,0.054
			c-0.029,0-0.051-0.008-0.488-0.008c-0.401,0-0.434,0.008-0.458,0.008c-0.036,0-0.036-0.025-0.036-0.067
			c0-0.033,0.118-0.04,0.16-0.04c0.086,0,0.229-0.018,0.242-0.156c0.003-0.068,0.043-0.738,0.043-1.77c0-0.064,0-0.135-0.008-0.153
			c-0.025-0.063-0.217-0.249-0.291-0.249H43.829z"/>
		<path clip-path="url(#SVGID_2_)" fill="#FFFFFF" d="M47.351,36.526c0-0.252-0.002-0.338-0.006-0.502
			c-0.004-0.211-0.064-0.238-0.374-0.238c-0.038,0-0.038-0.028-0.038-0.061c0-0.021,0.006-0.046,0.031-0.045
			c0.028,0,0.338,0.013,0.562,0.013c0.228,0,0.536-0.013,0.565-0.014c0.024,0,0.031,0.024,0.031,0.046c0,0.032,0,0.061-0.039,0.061
			c-0.309,0-0.369,0.027-0.372,0.238c-0.004,0.164-0.009,0.25-0.009,0.502v0.869c0,0.154,0.005,0.385,0.012,0.562
			c0.004,0.096,0.025,0.156,0.307,0.156c0.099,0,0.099,0.021,0.099,0.061c0,0.032,0,0.047-0.028,0.047
			c-0.024,0-0.039-0.008-0.565-0.008c-0.523,0-0.536,0.008-0.562,0.008c-0.029,0-0.029-0.015-0.029-0.047c0-0.039,0-0.061,0.1-0.061
			c0.281,0,0.303-0.061,0.307-0.156c0.008-0.178,0.01-0.408,0.01-0.562V36.526z"/>
		<path clip-path="url(#SVGID_2_)" fill="#FFFFFF" d="M48.837,38.214c-0.522,0-0.537,0.008-0.561,0.008
			c-0.029,0-0.029-0.015-0.029-0.047c0-0.039,0-0.061,0.074-0.061c0.281,0,0.303-0.061,0.306-0.156
			c0.007-0.178,0.011-0.408,0.011-0.562v-0.869c0-0.252-0.004-0.338-0.007-0.502c-0.004-0.211-0.063-0.238-0.348-0.238
			c-0.04,0-0.04-0.028-0.04-0.061c0-0.021,0.008-0.046,0.033-0.045c0.028,0,0.336,0.013,0.561,0.013
			c0.416,0,0.934-0.013,1.195-0.014c0.08,0,0.127,0,0.135,0.028c0.092,0.327,0.156,0.48,0.156,0.502
			c0,0.021-0.021,0.024-0.053,0.024c-0.057,0-0.086-0.104-0.398-0.366c-0.053-0.047-0.139-0.082-0.245-0.082
			c-0.093,0-0.398,0.014-0.534,0.021c-0.082,0.004-0.103,0.074-0.103,0.273v0.817h0.238c0.384,0,0.412-0.155,0.419-0.194
			c0.043-0.264,0.055-0.264,0.078-0.264c0.043,0,0.067,0.004,0.067,0.024v0.534c0,0.213,0.019,0.334,0.019,0.424
			c0,0.022-0.025,0.026-0.047,0.026c-0.043,0-0.049-0.013-0.053-0.038c-0.053-0.385-0.117-0.406-0.463-0.406h-0.259v0.918
			c0,0.139,0.042,0.186,0.174,0.186h0.847c0.135,0,0.34-0.342,0.416-0.438c0.014-0.016,0.023-0.022,0.045-0.022
			c0.035,0,0.059,0.003,0.059,0.025c0,0.011-0.186,0.54-0.225,0.54H48.837z"/>
		<path clip-path="url(#SVGID_2_)" fill="#FFFFFF" d="M51.984,37.681c0-0.268-0.143-0.385-0.639-0.646
			c-0.297-0.156-0.542-0.293-0.542-0.664c0-0.375,0.249-0.724,0.776-0.724c0.251,0,0.397,0.065,0.479,0.065
			c0.038,0,0.067-0.065,0.095-0.065c0.021,0,0.033,0.019,0.033,0.048c0,0.277,0.053,0.555,0.053,0.579
			c0,0.018-0.018,0.036-0.035,0.036c-0.039,0-0.054,0-0.061-0.021c-0.1-0.277-0.246-0.548-0.584-0.548
			c-0.248,0-0.469,0.175-0.469,0.45c0,0.239,0.146,0.342,0.277,0.428c0.409,0.26,0.953,0.373,0.953,0.906
			c0,0.523-0.378,0.738-0.861,0.738c-0.256,0-0.473-0.026-0.625-0.049c-0.025-0.003-0.029-0.007-0.032-0.043
			c-0.024-0.381-0.05-0.522-0.05-0.539c0-0.029,0.028-0.035,0.07-0.035c0.029,0,0.033,0.01,0.041,0.045
			c0.08,0.281,0.26,0.529,0.625,0.529C51.814,38.171,51.984,37.965,51.984,37.681"/>
		<path clip-path="url(#SVGID_2_)" fill="#FFFFFF" d="M52.85,35.562c0.196,0,0.353,0.16,0.353,0.359
			c0,0.203-0.156,0.361-0.354,0.361s-0.357-0.158-0.357-0.361C52.492,35.722,52.652,35.562,52.85,35.562L52.85,35.562z
			 M52.849,35.616c-0.16,0-0.289,0.137-0.289,0.305c0,0.171,0.129,0.307,0.29,0.307c0.159,0.001,0.288-0.136,0.288-0.305
			C53.138,35.753,53.009,35.616,52.849,35.616L52.849,35.616z M52.781,36.13h-0.064v-0.4c0.034-0.004,0.066-0.01,0.114-0.01
			c0.062,0,0.101,0.014,0.124,0.03c0.025,0.018,0.037,0.044,0.037,0.083c0,0.053-0.035,0.084-0.078,0.098v0.004
			c0.035,0.006,0.06,0.039,0.066,0.098c0.011,0.062,0.02,0.086,0.026,0.098H52.94c-0.011-0.012-0.019-0.049-0.028-0.102
			c-0.01-0.051-0.035-0.07-0.087-0.07h-0.044V36.13z M52.781,35.909h0.047c0.053,0,0.098-0.02,0.098-0.07
			c0-0.033-0.026-0.069-0.098-0.069c-0.021,0-0.035,0.001-0.047,0.003V35.909z"/>
	</g>
	<g>
		<defs>
			<rect id="SVGID_3_" x="23.08" y="82.37" width="15.452" height="16.372"/>
		</defs>
		<clipPath id="SVGID_4_">
			<use xlink:href="#SVGID_3_"  overflow="visible"/>
		</clipPath>
		<path clip-path="url(#SVGID_4_)" fill="#FFFFFF" d="M26.092,97.059c0.077,0.063,0.162,0.11,0.242,0.14l0.043-0.104
			c-0.056-0.018-0.123-0.059-0.193-0.105c0.06-0.054,0.1-0.119,0.131-0.195c0.029-0.071,0.04-0.156,0.04-0.252
			c0-0.111-0.021-0.211-0.06-0.303c-0.047-0.09-0.111-0.156-0.193-0.207c-0.087-0.049-0.183-0.072-0.287-0.072
			c-0.102,0-0.196,0.02-0.278,0.065c-0.087,0.05-0.151,0.12-0.193,0.214c-0.046,0.092-0.073,0.191-0.073,0.303
			c0,0.115,0.027,0.215,0.073,0.301c0.042,0.093,0.106,0.159,0.19,0.213c0.085,0.053,0.179,0.074,0.274,0.074
			C25.916,97.13,26.004,97.108,26.092,97.059 M25.43,96.542c0-0.151,0.033-0.264,0.107-0.342c0.075-0.075,0.169-0.113,0.281-0.113
			c0.074,0,0.141,0.016,0.201,0.056c0.06,0.036,0.104,0.089,0.137,0.159c0.028,0.07,0.049,0.149,0.049,0.24
			c0,0.162-0.043,0.281-0.132,0.365c-0.058-0.052-0.126-0.084-0.218-0.11l-0.032,0.11c0.05,0.016,0.101,0.035,0.147,0.062
			c-0.046,0.02-0.1,0.032-0.151,0.032c-0.115,0-0.209-0.042-0.281-0.118C25.463,96.803,25.43,96.69,25.43,96.542 M27.894,96.767
			h0.472l0.137,0.342h0.169l-0.466-1.133h-0.159l-0.439,1.133h0.158L27.894,96.767z M28.06,96.312
			c0.028-0.072,0.048-0.146,0.064-0.219c0.015,0.061,0.042,0.139,0.082,0.238l0.118,0.312h-0.387L28.06,96.312z M28.95,95.976
			h-0.149v1.133h0.707v-0.133H28.95V95.976z M29.09,97.474c-0.101-0.057-0.209-0.086-0.327-0.086c-0.185,0-0.334,0.06-0.45,0.186
			c-0.117,0.123-0.181,0.295-0.181,0.512c0,0.112,0.028,0.223,0.077,0.325c0.057,0.107,0.123,0.187,0.223,0.246
			c0.095,0.06,0.207,0.086,0.331,0.086c0.115,0,0.22-0.026,0.321-0.073c0.095-0.06,0.168-0.137,0.224-0.244
			c0.054-0.104,0.08-0.224,0.08-0.356s-0.026-0.249-0.077-0.352C29.263,97.613,29.19,97.534,29.09,97.474 M29.084,98.46
			c-0.087,0.09-0.193,0.137-0.324,0.137c-0.128,0-0.235-0.047-0.317-0.137c-0.084-0.09-0.126-0.217-0.126-0.367
			c0-0.201,0.042-0.344,0.133-0.426c0.086-0.086,0.193-0.126,0.314-0.126c0.087,0,0.163,0.02,0.233,0.065
			c0.07,0.047,0.119,0.107,0.158,0.18c0.035,0.088,0.054,0.18,0.054,0.282C29.209,98.238,29.167,98.366,29.084,98.46 M27.294,97.069
			c0.065-0.047,0.116-0.1,0.135-0.166c0.027-0.066,0.041-0.157,0.041-0.273v-0.654h-0.152v0.654c0,0.139-0.023,0.24-0.067,0.293
			c-0.047,0.047-0.125,0.073-0.232,0.073c-0.065,0-0.123-0.014-0.169-0.04c-0.041-0.026-0.073-0.061-0.09-0.107
			c-0.02-0.046-0.025-0.119-0.025-0.219v-0.654h-0.152v0.654c0,0.12,0.018,0.213,0.044,0.285c0.027,0.07,0.074,0.121,0.143,0.162
			c0.066,0.031,0.154,0.053,0.259,0.053C27.138,97.13,27.227,97.108,27.294,97.069 M26.565,97.487
			c-0.038-0.033-0.099-0.053-0.162-0.06c-0.044-0.011-0.109-0.017-0.196-0.017h-0.498v1.312h0.176v-0.53h0.335
			c0.186,0,0.313-0.041,0.386-0.121c0.073-0.076,0.103-0.166,0.103-0.277c0-0.067-0.01-0.127-0.039-0.181
			C26.646,97.561,26.612,97.513,26.565,97.487 M26.46,97.972c-0.047,0.04-0.126,0.063-0.24,0.063h-0.335v-0.468h0.335
			c0.074,0,0.13,0.002,0.16,0.014c0.046,0.01,0.08,0.039,0.11,0.078c0.025,0.037,0.04,0.083,0.04,0.141
			C26.53,97.874,26.511,97.933,26.46,97.972 M25.169,97.474c-0.098-0.057-0.207-0.086-0.333-0.086c-0.177,0-0.329,0.06-0.448,0.186
			c-0.114,0.123-0.173,0.295-0.173,0.512c0,0.112,0.022,0.223,0.078,0.325c0.049,0.107,0.122,0.187,0.214,0.246
			c0.103,0.06,0.21,0.086,0.329,0.086c0.117,0,0.227-0.026,0.323-0.073c0.098-0.06,0.172-0.137,0.227-0.244
			c0.051-0.104,0.077-0.224,0.077-0.356s-0.019-0.249-0.077-0.352C25.341,97.613,25.271,97.534,25.169,97.474 M25.159,98.46
			c-0.081,0.09-0.189,0.137-0.323,0.137c-0.126,0-0.233-0.047-0.315-0.137c-0.083-0.09-0.125-0.217-0.125-0.367
			c0-0.201,0.042-0.344,0.129-0.426c0.088-0.086,0.196-0.126,0.317-0.126c0.087,0,0.163,0.02,0.229,0.065
			c0.071,0.047,0.126,0.107,0.159,0.18c0.041,0.088,0.054,0.18,0.054,0.282C25.285,98.238,25.244,98.366,25.159,98.46
			 M25.078,96.109v-0.134h-0.816v1.133h0.843v-0.133h-0.691v-0.385h0.624v-0.133h-0.624v-0.349H25.078z M27.804,97.487
			c-0.043-0.033-0.098-0.053-0.162-0.06c-0.044-0.011-0.112-0.017-0.199-0.017h-0.491v1.312h0.172v-0.53h0.334
			c0.183,0,0.315-0.041,0.382-0.121c0.074-0.076,0.106-0.166,0.106-0.277c0-0.067-0.007-0.127-0.035-0.181
			C27.882,97.561,27.848,97.513,27.804,97.487 M27.703,97.972c-0.048,0.04-0.128,0.063-0.241,0.063h-0.337v-0.468h0.334
			c0.077,0,0.133,0.002,0.163,0.014c0.044,0.01,0.081,0.039,0.111,0.078c0.021,0.037,0.039,0.083,0.039,0.141
			C27.771,97.874,27.748,97.933,27.703,97.972 M30.419,98.192c-0.024-0.021-0.061-0.041-0.108-0.063
			c0.128-0.018,0.219-0.061,0.28-0.123c0.063-0.064,0.091-0.142,0.091-0.233c0-0.072-0.019-0.139-0.052-0.199
			c-0.04-0.061-0.087-0.1-0.149-0.126c-0.06-0.02-0.15-0.036-0.269-0.036h-0.578v1.312h0.173v-0.581h0.202
			c0.047,0,0.077,0.003,0.095,0.01c0.028,0.006,0.054,0.018,0.078,0.033c0.03,0.013,0.057,0.043,0.093,0.086
			c0.029,0.041,0.073,0.105,0.123,0.182l0.173,0.271h0.219l-0.226-0.356C30.517,98.298,30.468,98.238,30.419,98.192 M30.18,97.993
			h-0.372v-0.433h0.415c0.098,0,0.168,0.021,0.212,0.06c0.047,0.039,0.069,0.094,0.069,0.152c0,0.04-0.014,0.08-0.036,0.119
			c-0.023,0.034-0.056,0.057-0.104,0.074C30.324,97.985,30.259,97.993,30.18,97.993 M37.03,97.8
			c-0.057,0.086-0.104,0.166-0.143,0.232c-0.044-0.072-0.087-0.146-0.133-0.22l-0.264-0.401h-0.208l0.51,0.758v0.554h0.169v-0.554
			l0.523-0.758h-0.2L37.03,97.8z M30.105,95.976v1.133h0.154v-0.531h0.585v0.531h0.149v-1.133h-0.149v0.47h-0.585v-0.47H30.105z
			 M36.581,96.2c0.033-0.035,0.07-0.061,0.12-0.084c0.051-0.023,0.11-0.029,0.18-0.029c0.054,0,0.105,0.006,0.153,0.029
			c0.046,0.016,0.087,0.043,0.107,0.076c0.025,0.033,0.044,0.079,0.062,0.139l0.14-0.039c-0.02-0.074-0.046-0.139-0.083-0.183
			c-0.041-0.05-0.091-0.084-0.159-0.11c-0.066-0.029-0.139-0.039-0.22-0.039c-0.115,0-0.212,0.02-0.302,0.065
			c-0.086,0.047-0.153,0.12-0.197,0.214c-0.044,0.096-0.067,0.199-0.067,0.311c0,0.11,0.023,0.213,0.067,0.299
			c0.043,0.094,0.113,0.16,0.207,0.207c0.091,0.053,0.191,0.074,0.302,0.074c0.083,0,0.163-0.014,0.242-0.048
			c0.077-0.026,0.153-0.073,0.226-0.126v-0.422H36.88v0.13h0.33v0.22c-0.031,0.023-0.077,0.052-0.139,0.072
			c-0.064,0.029-0.123,0.043-0.19,0.043c-0.073,0-0.141-0.017-0.212-0.057c-0.064-0.027-0.112-0.079-0.15-0.148
			c-0.032-0.071-0.05-0.153-0.05-0.252c0-0.084,0.014-0.164,0.041-0.23C36.528,96.271,36.549,96.231,36.581,96.2 M34.915,95.976
			h-0.153v1.133h0.153V95.976z M35.188,97.567h0.431v1.155h0.172v-1.155h0.432v-0.156h-1.035V97.567z M28.136,92.612h5.231V90.5
			h-5.231V92.612z M30.807,82.371l-7.728,5.13v2.043h1.039v6.17h13.373v-6.17h1.041v-2.043L30.807,82.371z M35.894,93.599H25.72
			v-5.171l5.087-3.38l5.087,3.38V93.599z M28.136,90.032h5.231v-2.115h-5.231V90.032z M35.935,97.108h0.149v-1.133H35.94v0.895
			l-0.594-0.895h-0.152v1.133h0.143v-0.891L35.935,97.108z M32.225,96.855c0.046-0.093,0.069-0.195,0.069-0.312
			c0-0.113-0.023-0.213-0.062-0.305c-0.048-0.086-0.111-0.156-0.196-0.207c-0.085-0.049-0.177-0.072-0.284-0.072
			c-0.159,0-0.291,0.049-0.392,0.156c-0.099,0.109-0.153,0.256-0.153,0.441c0,0.1,0.021,0.195,0.066,0.281
			c0.047,0.091,0.107,0.163,0.194,0.217c0.083,0.045,0.181,0.074,0.285,0.074c0.101,0,0.189-0.021,0.273-0.071
			C32.111,97.013,32.179,96.942,32.225,96.855 M31.753,97.002c-0.112,0-0.206-0.042-0.28-0.118
			c-0.072-0.078-0.106-0.186-0.106-0.326c0-0.167,0.037-0.292,0.113-0.362c0.081-0.073,0.168-0.108,0.273-0.108
			c0.074,0,0.146,0.016,0.207,0.056c0.057,0.036,0.103,0.089,0.132,0.159c0.033,0.07,0.05,0.149,0.05,0.24
			c0,0.148-0.037,0.261-0.109,0.342C31.959,96.96,31.865,97.002,31.753,97.002 M32.935,98.169c0,0.164-0.026,0.275-0.08,0.33
			c-0.052,0.061-0.146,0.086-0.271,0.086c-0.077,0-0.139-0.016-0.188-0.042c-0.054-0.025-0.09-0.065-0.11-0.122
			c-0.023-0.057-0.032-0.137-0.032-0.252v-0.758h-0.178v0.758c0,0.139,0.018,0.247,0.051,0.328c0.036,0.086,0.094,0.139,0.172,0.186
			c0.081,0.04,0.172,0.06,0.299,0.06c0.126,0,0.229-0.022,0.308-0.065c0.077-0.055,0.132-0.117,0.163-0.193
			c0.031-0.08,0.041-0.18,0.041-0.314v-0.758h-0.173V98.169z M30.837,97.567h0.435v1.155h0.178v-1.155h0.426v-0.156h-1.038V97.567z
			 M34.789,98.723h0.175v-1.312h-0.175V98.723z M34.319,96.517c-0.043-0.025-0.128-0.046-0.25-0.071
			c-0.119-0.027-0.192-0.061-0.222-0.087c-0.028-0.023-0.042-0.057-0.042-0.098c0-0.046,0.017-0.09,0.062-0.121
			c0.037-0.033,0.104-0.047,0.196-0.047c0.087,0,0.152,0.017,0.193,0.053c0.047,0.041,0.07,0.094,0.08,0.159l0.143-0.013
			c0-0.061-0.024-0.127-0.058-0.176c-0.032-0.051-0.082-0.091-0.146-0.117c-0.065-0.029-0.139-0.039-0.222-0.039
			c-0.076,0-0.143,0.01-0.206,0.039c-0.06,0.021-0.109,0.061-0.14,0.11c-0.033,0.05-0.05,0.103-0.05,0.162
			c0,0.046,0.014,0.101,0.041,0.14c0.027,0.04,0.067,0.076,0.121,0.105c0.039,0.025,0.112,0.047,0.214,0.071
			c0.107,0.026,0.178,0.042,0.203,0.056c0.047,0.017,0.08,0.041,0.101,0.066c0.02,0.027,0.03,0.057,0.03,0.093
			c0,0.034-0.01,0.067-0.037,0.097c-0.017,0.03-0.047,0.057-0.094,0.07c-0.045,0.02-0.092,0.029-0.149,0.029
			c-0.064,0-0.123-0.014-0.172-0.033c-0.051-0.026-0.087-0.053-0.108-0.09c-0.028-0.039-0.044-0.082-0.048-0.141l-0.141,0.011
			c0.003,0.077,0.021,0.143,0.061,0.203c0.041,0.06,0.095,0.106,0.159,0.133c0.07,0.034,0.157,0.048,0.26,0.048
			c0.078,0,0.149-0.014,0.216-0.041c0.067-0.033,0.112-0.076,0.145-0.129c0.037-0.051,0.054-0.111,0.054-0.166
			c0-0.064-0.017-0.117-0.047-0.164C34.436,96.584,34.387,96.542,34.319,96.517 M34.283,98.444l-0.687-1.033h-0.179v1.312h0.168
			v-1.026l0.684,1.026h0.183v-1.312h-0.17V98.444z M33.25,96.63c0,0.139-0.025,0.24-0.072,0.293
			c-0.043,0.047-0.123,0.073-0.232,0.073c-0.064,0-0.12-0.014-0.164-0.04c-0.042-0.026-0.076-0.061-0.094-0.107
			c-0.012-0.046-0.027-0.119-0.027-0.219v-0.654H32.51v0.654c0,0.12,0.013,0.213,0.046,0.285c0.027,0.07,0.074,0.121,0.143,0.162
			c0.067,0.031,0.152,0.053,0.258,0.053c0.11,0,0.197-0.021,0.264-0.061c0.062-0.047,0.112-0.1,0.139-0.166
			c0.027-0.066,0.04-0.157,0.04-0.273v-0.654h-0.15V96.63z"/>
	</g>
	<g>
		<path fill="#FFFFFF" d="M28.719,147.15c0.784,0,1.418-0.635,1.418-1.418s-0.634-1.418-1.418-1.418
			c-0.783,0-1.418,0.635-1.418,1.418S27.936,147.15,28.719,147.15"/>
		<path fill="#FFFFFF" d="M33.74,154.458h-4.597c-0.749,0.003-1.382-0.535-1.447-1.292l-0.245-4.306
			c-0.037-0.754,0.534-1.404,1.291-1.447c0.756-0.043,1.396,0.542,1.447,1.291l0.089,1.484l2.653-0.002
			c0.361,0.016,0.644,0.29,0.644,0.646s-0.288,0.624-0.644,0.645l-2.578-0.001l0.038,0.807h3.546
			c0.274,0.01,0.538,0.152,0.688,0.405l2.578,4.343c0.22,0.407,0.104,0.902-0.29,1.137c-0.394,0.233-0.909,0.082-1.134-0.291
			L33.74,154.458z"/>
		<path fill="#FFFFFF" d="M33.802,155.734c-0.297,2.037-2.052,3.602-4.172,3.602c-2.329,0-4.216-1.887-4.216-4.215
			c0-1.339,0.625-2.533,1.598-3.307l-0.071-1.299c-1.581,0.926-2.642,2.641-2.642,4.605c0,2.943,2.387,5.33,5.331,5.33
			c2.256,0,4.186-1.4,4.963-3.382L33.802,155.734z"/>
	</g>
	<line fill="none" x1="8.408" y1="111.469" x2="53.204" y2="111.469"/>
	<g display="none">
		<defs>
			<rect id="SVGID_5_" x="16.643" y="203.312" width="29.406" height="13.543"/>
		</defs>
		<clipPath id="SVGID_6_" display="inline">
			<use xlink:href="#SVGID_5_"  overflow="visible"/>
		</clipPath>
	</g>
	<g>
		<path fill="#231F20" d="M37.093,223.312H25.654c-0.549,0-0.992,0.434-0.992,0.967v11.573c0,0.534,0.443,0.968,0.992,0.968h11.439
			c0.548,0,0.993-0.434,0.993-0.968v-11.573C38.086,223.746,37.641,223.312,37.093,223.312"/>
		<path fill="#FFFFFF" d="M28.889,227.875h1.08v-0.554c0-0.618,0.066-1.079,0.197-1.384c0.132-0.306,0.374-0.554,0.727-0.744
			c0.353-0.192,0.8-0.287,1.34-0.287c0.553,0,1.095,0.082,1.626,0.249l-0.262,1.356c-0.31-0.073-0.607-0.11-0.893-0.11
			c-0.282,0-0.484,0.065-0.607,0.196c-0.122,0.133-0.182,0.386-0.182,0.76v0.518h1.453v1.531h-1.453v5.822h-1.946v-5.822h-1.08
			V227.875z"/>
	</g>
	<g>
		<rect x="24.606" y="193.319" fill="#231F20" width="13.536" height="13.536"/>
		<path fill="#FFFFFF" d="M35.886,197.289c-0.332,0.146-0.689,0.247-1.063,0.292c0.382-0.23,0.675-0.593,0.814-1.025
			c-0.358,0.212-0.754,0.366-1.176,0.45c-0.338-0.36-0.819-0.585-1.351-0.585c-1.023,0-1.852,0.829-1.852,1.851
			c0,0.146,0.017,0.287,0.048,0.422c-1.538-0.076-2.903-0.813-3.816-1.934c-0.159,0.273-0.25,0.591-0.25,0.931
			c0,0.643,0.326,1.208,0.823,1.541c-0.303-0.01-0.589-0.093-0.838-0.231c-0.001,0.008-0.001,0.015-0.001,0.022
			c0,0.897,0.639,1.646,1.486,1.816c-0.156,0.042-0.319,0.064-0.488,0.064c-0.119,0-0.235-0.012-0.349-0.033
			c0.236,0.735,0.92,1.271,1.73,1.286c-0.634,0.496-1.432,0.793-2.299,0.793c-0.15,0-0.297-0.01-0.442-0.026
			c0.819,0.525,1.792,0.832,2.838,0.832c3.405,0,5.268-2.822,5.268-5.269c0-0.079-0.002-0.159-0.006-0.239
			C35.324,197.985,35.639,197.66,35.886,197.289"/>
	</g>
</g>
</svg>
