<?xml version="1.0" encoding="utf-8"?>
<!-- Generator: Adobe Illustrator 15.0.2, SVG Export Plug-In . SVG Version: 6.00 Build 0)  -->
<!DOCTYPE svg PUBLIC "-//W3C//DTD SVG 1.1//EN" "http://www.w3.org/Graphics/SVG/1.1/DTD/svg11.dtd">
<svg version="1.1" id="Layer_1" xmlns="http://www.w3.org/2000/svg" xmlns:xlink="http://www.w3.org/1999/xlink" x="0px" y="0px"
	 width="118px" height="88px" viewBox="0 0 118 88" enable-background="new 0 0 118 88" xml:space="preserve">
<g>
	<polygon fill="#BD292C" points="0,-1.155 0,64.258 0,71.564 0,88.136 118.005,88.136 118.005,-1.155 	"/>
	<g>
		<defs>
			<rect id="SVGID_1_" y="0.136" width="117.713" height="88"/>
		</defs>
		<clipPath id="SVGID_2_">
			<use xlink:href="#SVGID_1_"  overflow="visible"/>
		</clipPath>
		<path clip-path="url(#SVGID_2_)" fill="#F4DBC2" d="M13.419,56.962c0-1.102,0.987-1.963,2.542-1.963
			c1.23,0,2.342,0.396,3.449,1.309l0.785-1.048c-1.212-0.981-2.457-1.481-4.199-1.481c-2.271,0-3.925,1.377-3.925,3.301
			c0,1.996,1.265,2.89,4.015,3.493c2.507,0.53,3.101,1.167,3.101,2.301c0,1.22-1.055,2.066-2.661,2.066
			c-1.654,0-2.853-0.569-4.097-1.702l-0.841,0.995c1.438,1.29,2.993,1.929,4.885,1.929c2.372,0,4.083-1.344,4.083-3.424
			c0-1.859-1.228-2.836-3.892-3.422C14.032,58.747,13.419,58.112,13.419,56.962 M33.479,53.95h-8.641v12.033h8.729v-1.234h-7.379
			v-4.212h6.521V59.3h-6.521v-4.107h7.291V53.95z M48.138,59.95c0-3.406-2.591-6-6.346-6h-4.148v12.033h4.148
			C45.547,65.983,48.138,63.354,48.138,59.95 M46.741,59.987c0,2.68-1.922,4.743-4.949,4.743h-2.799v-9.526h2.799
			C44.819,55.204,46.741,57.304,46.741,59.987 M62.996,59.95c0-3.334-2.444-6.203-6.078-6.203c-3.638,0-6.114,2.904-6.114,6.24
			s2.444,6.203,6.078,6.203C60.521,66.19,62.996,63.286,62.996,59.95 M61.594,59.987c0,2.75-1.943,4.952-4.675,4.952
			c-2.736,0-4.71-2.235-4.71-4.989c0-2.751,1.943-4.951,4.674-4.951C59.617,54.999,61.594,57.236,61.594,59.987 M75.234,63.597
			l-7.526-9.646h-1.263v12.033h1.312v-9.869l7.721,9.869h1.076V53.95h-1.319V63.597z M86.299,53.863h-1.264l-5.446,12.12h1.385
			l1.417-3.18h6.502l1.4,3.18h1.451L86.299,53.863z M88.363,61.581h-5.446l2.734-6.133L88.363,61.581z"/>
		<path clip-path="url(#SVGID_2_)" fill="#F4DBC2" d="M15.699,76.345l-0.33-0.329c-0.433,0.411-0.838,0.65-1.451,0.65
			c-0.986,0-1.74-0.816-1.74-1.872c0-1.049,0.743-1.857,1.74-1.857c0.607,0,1.028,0.26,1.408,0.621l0.343-0.374
			c-0.444-0.427-0.934-0.715-1.746-0.715c-1.323,0-2.269,1.047-2.269,2.343c0,1.299,0.956,2.326,2.25,2.326
			C14.718,77.138,15.232,76.824,15.699,76.345 M17.573,77.062h3.033v-0.474h-2.527v-4.047h-0.506V77.062z M23.899,72.515h-0.476
			l-2.044,4.548h0.52l0.534-1.194h2.438l0.529,1.194h0.544L23.899,72.515z M24.673,75.407h-2.046l1.028-2.301L24.673,75.407z
			 M30.887,77.062l-1.379-1.848c0.706-0.132,1.216-0.569,1.216-1.321c0-0.813-0.634-1.352-1.617-1.352H27.18v4.521h0.505v-1.757
			h1.282l1.297,1.757H30.887z M30.214,73.91c0,0.589-0.479,0.938-1.151,0.938h-1.378v-1.836h1.382
			C29.791,73.013,30.214,73.351,30.214,73.91 M35.66,72.542h-3.243v4.521h3.277v-0.469h-2.771v-1.577h2.448V74.55h-2.448v-1.541
			h2.736V72.542z M40.361,76.163l-2.82-3.621h-0.477v4.521h0.492v-3.704l2.896,3.704h0.404v-4.521h-0.496V76.163z M46.416,74.794
			c0-1.278-0.974-2.252-2.383-2.252h-1.558v4.521h1.558C45.442,77.062,46.416,76.075,46.416,74.794 M45.892,74.812
			c0,1.002-0.723,1.777-1.859,1.777h-1.051v-3.576h1.051C45.168,73.013,45.892,73.804,45.892,74.812 M52.212,74.794
			c0-1.25-0.914-2.325-2.283-2.325c-1.361,0-2.29,1.089-2.29,2.343c0,1.25,0.913,2.326,2.279,2.326
			C51.287,77.138,52.212,76.048,52.212,74.794 M51.687,74.812c0,1.033-0.729,1.854-1.757,1.854c-1.026,0-1.763-0.839-1.763-1.872
			c0-1.029,0.731-1.857,1.752-1.857C50.947,72.937,51.687,73.776,51.687,74.812 M56.741,76.163l-2.824-3.621h-0.475v4.521h0.495
			v-3.704l2.896,3.704h0.403v-4.521h-0.495V76.163z M63.395,72.542h-1.908v4.521h1.992c0.982,0,1.623-0.462,1.623-1.242
			c0-0.626-0.428-0.935-0.96-1.098c0.354-0.151,0.712-0.456,0.712-1.046C64.854,72.985,64.275,72.542,63.395,72.542 M63.31,74.558
			h-1.327v-1.557h1.363c0.641,0,0.996,0.289,0.996,0.744C64.342,74.282,63.918,74.558,63.31,74.558 M63.488,76.601h-1.506v-1.59
			h1.416c0.779,0,1.189,0.281,1.189,0.779C64.588,76.298,64.165,76.601,63.488,76.601 M70.711,74.794c0-1.25-0.92-2.325-2.281-2.325
			c-1.367,0-2.297,1.089-2.297,2.343c0,1.25,0.917,2.326,2.281,2.326C69.779,77.138,70.711,76.048,70.711,74.794 M70.185,74.812
			c0,1.033-0.731,1.854-1.755,1.854c-1.025,0-1.773-0.839-1.773-1.872c0-1.029,0.734-1.857,1.758-1.857
			C69.441,72.937,70.185,73.776,70.185,74.812 M75.797,72.542H75.29v2.627c0,0.986-0.526,1.49-1.353,1.49
			c-0.859,0-1.371-0.549-1.371-1.52v-2.598h-0.506v2.627c0,1.279,0.752,1.963,1.861,1.963c1.123,0,1.875-0.684,1.875-2.002V72.542z
			 M77.602,77.062h3.029v-0.474h-2.523v-4.047h-0.506V77.062z M85.289,72.542h-3.243v4.521h3.274v-0.469h-2.768v-1.577h2.446V74.55
			h-2.446v-1.541h2.736V72.542z M88.723,76.436l-1.596-3.894h-0.566l1.932,4.551h0.446l1.93-4.551h-0.547L88.723,76.436z
			 M93.467,72.515h-0.471l-2.043,4.548h0.517l0.533-1.194h2.441l0.522,1.194h0.543L93.467,72.515z M94.244,75.407h-2.043
			l1.023-2.301L94.244,75.407z M100.584,77.062l-1.375-1.848c0.705-0.132,1.221-0.569,1.221-1.321c0-0.813-0.635-1.352-1.619-1.352
			h-1.932v4.521h0.504v-1.757h1.281l1.301,1.757H100.584z M99.914,73.91c0,0.589-0.485,0.938-1.154,0.938h-1.377v-1.836h1.385
			C99.492,73.013,99.914,73.351,99.914,73.91 M106.057,74.794c0-1.278-0.975-2.252-2.385-2.252h-1.559v4.521h1.559
			C105.082,77.062,106.057,76.075,106.057,74.794 M105.535,74.812c0,1.002-0.727,1.777-1.863,1.777h-1.047v-3.576h1.047
			C104.809,73.013,105.535,73.804,105.535,74.812"/>
	</g>
</g>
</svg>
